# xmcd
#
# Track frame offsets:
#	150
#	18012
#	36202
#	46950
#	62265
#	79080
#	96317
#	108735
#	124580
#	141072
#
# Disc length: 2043 seconds
#
# Revision: 0
# Processed by: cddbd v1.4PL0 Copyright (c) Steve Scherf et al.
# Submitted via: dBpowerAMP V4.0
#
DISCID=7907f90a
DTITLE=Tom T Hall - Old dogs,children and watermelon wine
DYEAR=1900
DGENRE=Country
TTITLE0=Take me back to muhlenberg
TTITLE1=I like beer
TTITLE2=Fox on the run
TTITLE3=I love
TTITLE4=Rank stranger
TTITLE5=Old dogs,children and watermelon wine
TTITLE6=That song's driving me crazy
TTITLE7=John henry
TTITLE8=Mable,you have been a friend to me
TTITLE9=All in the game
EXTD=submited by Chris Corcoran
EXTT0=
EXTT1=
EXTT2=
EXTT3=
EXTT4=
EXTT5=
EXTT6=
EXTT7=
EXTT8=
EXTT9=
PLAYORDER=
